<svg width="12" height="13" viewBox="0 0 12 13" fill="none" xmlns="http://www.w3.org/2000/svg">
  <path
    d="M3.08333 8.75001H7.16667V9.91668H3.08333V8.75001ZM3.08333 6.41668H8.91667V7.58334H3.08333V6.41668ZM3.08333 4.08334H8.91667V5.25001H3.08333V4.08334ZM10.0833 1.75001H7.645C7.4 1.07334 6.75833 0.583344 6 0.583344C5.24167 0.583344 4.6 1.07334 4.355 1.75001H1.91667C1.835 1.75001 1.75917 1.75584 1.68333 1.77334C1.45583 1.82001 1.25167 1.93668 1.09417 2.09418C0.989167 2.19918 0.901667 2.32751 0.843333 2.46751C0.785 2.60168 0.75 2.75334 0.75 2.91668V11.0833C0.75 11.2408 0.785 11.3983 0.843333 11.5383C0.901667 11.6783 0.989167 11.8008 1.09417 11.9117C1.25167 12.0692 1.45583 12.1858 1.68333 12.2325C1.75917 12.2442 1.835 12.25 1.91667 12.25H10.0833C10.725 12.25 11.25 11.725 11.25 11.0833V2.91668C11.25 2.27501 10.725 1.75001 10.0833 1.75001ZM6 1.60418C6.23917 1.60418 6.4375 1.80251 6.4375 2.04168C6.4375 2.28084 6.23917 2.47918 6 2.47918C5.76083 2.47918 5.5625 2.28084 5.5625 2.04168C5.5625 1.80251 5.76083 1.60418 6 1.60418ZM10.0833 11.0833H1.91667V2.91668H10.0833V11.0833Z"
    fill="#323232" />
</svg>