<svg width="14" height="10" viewBox="0 0 14 10" fill="none" xmlns="http://www.w3.org/2000/svg">
  <path
    d="M9.72418 5.65916C10.5233 6.20166 11.0833 6.93666 11.0833 7.91666V9.66666H13.4167V7.91666C13.4167 6.64499 11.3342 5.89249 9.72418 5.65916Z"
    fill="#323232" />
  <path
    d="M8.75002 4.99999C10.0392 4.99999 11.0833 3.95583 11.0833 2.66666C11.0833 1.37749 10.0392 0.333328 8.75002 0.333328C8.47585 0.333328 8.21918 0.391661 7.97418 0.473328C8.45835 1.07416 8.75002 1.83833 8.75002 2.66666C8.75002 3.49499 8.45835 4.25916 7.97418 4.85999C8.21918 4.94166 8.47585 4.99999 8.75002 4.99999Z"
    fill="#323232" />
  <path
    d="M5.24996 4.99999C6.53913 4.99999 7.58329 3.95583 7.58329 2.66666C7.58329 1.37749 6.53913 0.333328 5.24996 0.333328C3.96079 0.333328 2.91663 1.37749 2.91663 2.66666C2.91663 3.95583 3.96079 4.99999 5.24996 4.99999ZM5.24996 1.49999C5.89163 1.49999 6.41663 2.02499 6.41663 2.66666C6.41663 3.30833 5.89163 3.83333 5.24996 3.83333C4.60829 3.83333 4.08329 3.30833 4.08329 2.66666C4.08329 2.02499 4.60829 1.49999 5.24996 1.49999Z"
    fill="#323232" />
  <path
    d="M5.24998 5.58333C3.69248 5.58333 0.583313 6.36499 0.583313 7.91666V9.66666H9.91665V7.91666C9.91665 6.36499 6.80748 5.58333 5.24998 5.58333ZM8.74998 8.49999H1.74998V7.92249C1.86665 7.50249 3.67498 6.74999 5.24998 6.74999C6.82498 6.74999 8.63331 7.50249 8.74998 7.91666V8.49999Z"
    fill="#323232" />
</svg>