<svg width="16" height="10" viewBox="0 0 16 10" fill="none" xmlns="http://www.w3.org/2000/svg">
  <path d="M7.99984 1.33333C10.5265 1.33333 12.7798 2.75333 13.8798 5C12.7798 7.24667 10.5332 8.66667 7.99984 8.66667C5.4665 8.66667 3.21984 7.24667 2.11984 5C3.21984 2.75333 5.47317 1.33333 7.99984 1.33333ZM7.99984 0C4.6665 0 1.81984 2.07333 0.666504 5C1.81984 7.92667 4.6665 10 7.99984 10C11.3332 10 14.1798 7.92667 15.3332 5C14.1798 2.07333 11.3332 0 7.99984 0ZM7.99984 3.33333C8.91984 3.33333 9.6665 4.08 9.6665 5C9.6665 5.92 8.91984 6.66667 7.99984 6.66667C7.07984 6.66667 6.33317 5.92 6.33317 5C6.33317 4.08 7.07984 3.33333 7.99984 3.33333ZM7.99984 2C6.3465 2 4.99984 3.34667 4.99984 5C4.99984 6.65333 6.3465 8 7.99984 8C9.65317 8 10.9998 6.65333 10.9998 5C10.9998 3.34667 9.65317 2 7.99984 2Z" fill="#323232"/>
</svg>