<?xml version="1.0" encoding="utf-8"?>
<svg viewBox="0 0 500 500" xmlns="http://www.w3.org/2000/svg">
  <rect style="fill: #fff;" x="35.745" y="35.488" width="420.372" height="422.391" rx="100" ry="100" />
  <g transform="matrix(0.064637, 0, 0, -0.071346, 79.023315, 440.325287)" fill="#000000" stroke="none" style="">
    <path
      d="M455 4888 c-8 -24 -245 -857 -245 -863 0 -3 277 -5 615 -5 l615 0 -5 -23 c-4 -13 -224 -729 -489 -1593 l-483 -1569 690 -3 c380 -1 694 1 698 5 3 5 226 722 495 1596 l488 1587 701 0 701 0 118 423 c66 232 121 430 124 440 4 16 -9 17 -169 17 l-174 0 -84 -285 -84 -285 -720 -2 -721 -3 -473 -1525 c-260 -839 -482 -1555 -493 -1593 l-21 -67 -284 0 c-164 0 -285 4 -285 9 0 5 218 716 485 1581 267 864 485 1578 485 1586 0 12 -95 14 -646 14 -513 0 -645 3 -641 13 7 18 157 546 157 552 0 3 -79 5 -175 5 -132 0 -177 -3 -180 -12z" />
    <path
      d="M4646 4313 c-14 -49 -101 -340 -127 -425 l-30 -98 -718 0 -719 0 -27 -87 c-15 -49 -237 -765 -493 -1593 l-467 -1505 -492 -3 -492 -2 -36 -118 c-20 -64 -40 -130 -46 -146 -5 -16 -9 -33 -9 -37 0 -5 312 -9 694 -9 l695 0 35 113 c19 61 231 751 471 1532 240 781 445 1448 456 1482 l21 63 701 2 701 3 118 420 c64 231 118 421 118 423 0 1 -78 2 -174 2 -158 0 -175 -2 -180 -17z"
      fill="#d93d3d" />
  </g>
</svg>